<svg xmlns="http://www.w3.org/2000/svg" width="682.667" height="682.667" version="1" viewBox="0 0 512 512"><path d="M43 40c-14.2 1.8-26.6 9.7-34.9 22C-.2 74.5.5 57.4.5 256s-.7 181.5 7.6 194c6.8 10.1 16.3 17.2 27.8 20.8 5.2 1.6 19.5 1.7 220.1 1.7s214.9-.1 220.1-1.7c11.5-3.6 21-10.7 27.8-20.8 8.3-12.5 7.6 4.6 7.6-194 0-167.8-.1-176.8-1.8-182.2-4.5-14.3-17.7-27.3-32.9-32.5-5-1.7-16.3-1.8-216.8-1.9-116.3-.1-214 .2-217 .6zm108.4 79c1.4.5 3.3 2.1 4.3 3.7 1.6 2.5 1.8 5.6 1.8 35.5V191l-2.8 2.7-2.7 2.8H45l-2.7-2.8-2.8-2.7v-33.4c0-32 .1-33.5 2-35.6 1.1-1.2 2.9-2.6 4-3.1 2.9-1.1 102.8-1.1 105.9.1zm157.5.1c5.9 2.1 6.1 3.4 6.1 38.4 0 34.3-.2 35.9-5.5 38.3-3.7 1.7-103.3 1.7-107 0-5.3-2.4-5.5-4-5.5-38.2 0-34.3.2-35.9 5.5-38.2 4-1.7 101.4-2 106.4-.3zm160.8 2.2l2.8 2.7v67l-2.8 2.7-2.7 2.8H360l-2.7-2.8-2.8-2.7v-32.8c0-29.9.2-33 1.8-35.5 1-1.6 2.8-3.2 4-3.7 1.2-.5 25.4-.8 54.4-.7l52.3.2 2.7 2.8zM152 237.8c5.8 2.9 6.2 5.3 5.8 40.5l-.3 30.9-3.3 2.9-3.2 2.9H99c-34.8 0-52.7-.4-54.3-1.1-5-2.3-5.2-3.2-5.5-36.6-.3-26-.1-31.7 1.2-34.7 2.7-6.6 2.3-6.5 58.1-6.6 45.6 0 50.3.2 53.5 1.8zm158.7.1c4.1 2.8 4.3 4.9 4.3 38.6v32.4l-2.4 2.8-2.4 2.8H202.1l-2.3-2.3c-2.3-2.2-2.3-2.4-2.6-34.9-.2-22.2.1-33.5.8-35.4 1-2.4 3-3.9 7-5.3.8-.2 24.5-.4 52.5-.3 42.6.2 51.4.4 53.2 1.6zm155.9-.4c6.2 2.6 6.5 4.5 6.2 39.8-.3 33.4-.5 34.3-5.5 36.6-1.6.7-19.5 1.1-54.3 1.1h-52l-3.2-2.9-3.3-2.9-.3-30.9c-.4-35.2 0-37.6 5.8-40.5 3.2-1.6 7.9-1.8 53.3-1.8 41.4 0 50.4.2 53.3 1.5zM150.3 355.1c7 1.9 7.2 2.6 7.5 35.4.4 33.2.1 36.3-3.5 39.9l-2.6 2.6H45.3l-2.6-2.6c-3.6-3.6-3.9-6.7-3.5-39.9.3-32.4.6-33.5 7.1-35.4 4.6-1.3 99.2-1.4 104 0zm161.8 2.7l2.9 3.2v66.2l-2.9 2.9-2.9 2.9H202.8l-2.9-2.9-2.9-2.9v-66l2.5-3.1c1.4-1.6 3.8-3.2 5.3-3.4 1.5-.2 25.6-.4 53.5-.3l50.9.1 2.9 3.3zm153.2-2.7c7 1.9 7.2 2.6 7.5 35.4.4 33.2.1 36.3-3.5 39.9l-2.6 2.6H360.3l-2.6-2.6c-3.6-3.6-3.9-6.7-3.5-39.9.3-32.4.6-33.5 7.1-35.4 4.6-1.3 99.2-1.4 104 0z"/></svg>